<svg xmlns="http://www.w3.org/2000/svg" width="375" viewBox="0 0 375 375" height="375" version="1.0"><defs><clipPath id="a"><path d="M 21.332031 98 L 167 98 L 167 337.554688 L 21.332031 337.554688 Z M 21.332031 98"/></clipPath><clipPath id="b"><path d="M 121 209 L 210.332031 209 L 210.332031 337.554688 L 121 337.554688 Z M 121 209"/></clipPath></defs><g clip-path="url(#a)"><path fill="#8C52FF" d="M 164.585938 139.699219 C 158.273438 118.261719 151.042969 98.601562 151.042969 98.601562 C 151.042969 98.601562 153.433594 107.972656 140.398438 129.414062 C 122.375 159.207031 123.445312 156.457031 21.511719 300.988281 L 47.734375 337.503906 C 47.734375 337.503906 132.558594 212.121094 160.613281 170.15625 C 164.890625 163.789062 169.675781 156.609375 164.585938 139.699219 Z M 164.585938 139.699219"/></g><path fill="#8C52FF" d="M 141.875 88.875 C 128.792969 82.40625 106.183594 79.554688 89.535156 88.875 C 89.535156 88.875 79.402344 94.882812 92.234375 116.730469 C 92.234375 116.730469 103.332031 113.21875 115.707031 113.21875 C 128.078125 113.21875 139.179688 116.730469 139.179688 116.730469 C 152.007812 94.882812 141.875 88.875 141.875 88.875 Z M 141.875 88.875"/><g clip-path="url(#b)"><path fill="#8C52FF" d="M 145.390625 209.320312 C 137.957031 220.421875 129.707031 232.59375 121.359375 244.96875 C 152.316406 290.90625 183.882812 337.554688 183.882812 337.554688 L 210.15625 301.039062 C 181.183594 259.890625 160.511719 230.757812 145.390625 209.320312 Z M 145.390625 209.320312"/></g><path fill="#8C52FF" d="M 86.480469 193.226562 C 97.222656 178 104.707031 167.355469 110.308594 159.257812 C 102.265625 147.441406 98.140625 140.769531 91.265625 129.464844 C 78.28125 108.023438 80.675781 98.652344 80.675781 98.652344 C 80.675781 98.652344 73.445312 118.3125 67.132812 139.75 C 62.039062 156.660156 66.828125 163.839844 71.050781 170.257812 C 75.125 176.316406 80.421875 184.210938 86.480469 193.226562 Z M 86.480469 193.226562"/><path d="M 304.691406 227.601562 C 303.34375 225.359375 302.167969 223.003906 300.707031 220.847656 C 299.960938 219.746094 298.851562 218.8125 297.730469 218.066406 C 295.25 216.414062 292.683594 214.890625 290.109375 213.386719 C 285.894531 210.929688 281.324219 210.507812 276.625 211.34375 C 272.457031 212.078125 269.53125 209.578125 266.316406 207.699219 C 263.503906 206.0625 260.667969 204.414062 257.6875 203.125 C 256.691406 202.695312 255.21875 203.332031 253.964844 203.523438 C 253.277344 203.628906 252.601562 203.929688 251.917969 203.945312 C 246.960938 204.085938 242.21875 205.15625 237.652344 207.078125 C 237.28125 207.238281 236.800781 207.144531 236.371094 207.167969 C 236.382812 206.679688 236.238281 206.109375 236.441406 205.71875 C 236.832031 204.953125 237.417969 204.285156 238.191406 203.203125 C 237.046875 203.003906 236.277344 202.757812 235.507812 202.757812 C 229.570312 202.769531 224.082031 204.589844 219.457031 208.109375 C 215.425781 211.179688 213.792969 216.953125 216.101562 222.78125 C 217.507812 226.332031 220.019531 229.046875 223.265625 230.996094 L 232.183594 235.613281 L 232.1875 235.613281 C 232.808594 236.148438 233.417969 236.632812 234.085938 237.007812 C 238.355469 239.398438 242.601562 241.890625 247.085938 243.824219 C 249.46875 244.847656 252.339844 244.695312 254.953125 245.242188 C 258.214844 245.921875 261.449219 246.757812 264.679688 247.558594 C 265.15625 247.679688 265.582031 247.988281 265.957031 248.558594 C 264.171875 248.464844 262.382812 248.375 260.589844 248.285156 C 260.578125 248.507812 260.5625 248.730469 260.546875 248.957031 C 265.789062 252 271.574219 251.855469 277.402344 251.5 C 277.460938 251.660156 277.523438 251.824219 277.582031 251.988281 C 276.914062 252.277344 276.230469 252.847656 275.578125 252.820312 C 272.027344 252.679688 268.417969 252.722656 264.957031 252.042969 C 262.140625 251.496094 259.507812 250.011719 256.78125 248.972656 C 255.660156 248.542969 254.5 248.195312 253.359375 247.816406 C 253.25 247.980469 253.136719 248.148438 253.03125 248.320312 C 254.578125 250.09375 256.226562 251.792969 257.65625 253.660156 C 260.289062 257.113281 262.886719 260.601562 265.304688 264.203125 C 266.148438 265.472656 266.402344 267.132812 266.929688 268.613281 C 266.710938 268.714844 266.5 268.8125 266.285156 268.914062 C 266 268.46875 265.699219 268.039062 265.4375 267.585938 C 262.101562 261.835938 258.390625 256.355469 253.074219 252.234375 C 251.621094 251.105469 249.679688 250.617188 247.976562 249.804688 C 247.199219 249.4375 246.261719 249.15625 245.738281 248.539062 C 244.589844 247.1875 243.246094 246.566406 241.515625 246.652344 C 236.992188 246.871094 232.433594 246.828125 227.960938 247.398438 C 225.425781 247.726562 223.007812 249.027344 220.570312 249.972656 C 219.878906 250.238281 219.292969 250.789062 218.65625 251.210938 C 218.457031 250.875 218.257812 250.539062 218.058594 250.207031 C 218.542969 249.578125 218.898438 248.746094 219.53125 248.363281 C 223.335938 246.070312 227.425781 244.78125 231.933594 245.050781 C 233.898438 245.167969 235.867188 245.234375 237.835938 245.234375 C 238.632812 245.238281 239.429688 245 240.601562 244.808594 C 240.015625 244.207031 239.753906 243.84375 239.402344 243.597656 C 237.476562 242.207031 235.542969 240.835938 233.59375 239.480469 C 232.757812 238.898438 231.980469 238.796875 231.308594 239.804688 C 230.269531 241.375 228.917969 241.246094 227.230469 240.796875 C 222.128906 239.429688 217.011719 238.003906 211.8125 237.148438 C 208.257812 236.5625 204.589844 236.839844 201.769531 239.882812 C 200.082031 241.699219 199.660156 243.628906 200.210938 245.960938 C 200.539062 247.34375 200.710938 248.765625 200.832031 250.183594 C 201.089844 253.257812 200.144531 255.777344 197.445312 257.570312 C 196.328125 258.316406 195.375 259.363281 194.492188 260.394531 C 191.476562 263.90625 191.335938 268.105469 192.375 272.238281 C 193.128906 275.261719 194.683594 278.085938 195.902344 280.984375 C 196.523438 282.460938 197.257812 283.890625 197.816406 285.382812 C 199.054688 288.683594 200.085938 292.0625 201.417969 295.320312 C 203.792969 301.125 208.464844 304.355469 214.265625 306.085938 C 218.3125 307.289062 222.417969 307.65625 226.613281 306.554688 C 231.28125 305.328125 234.257812 302.105469 236.796875 298.324219 C 240.269531 293.144531 241.148438 287.484375 239.859375 281.40625 C 239.691406 280.609375 240.101562 278.933594 240.292969 278.925781 C 241.761719 278.871094 241.601562 280.234375 241.683594 281.136719 C 242.195312 286.800781 242.335938 292.472656 240.269531 297.902344 C 239.644531 299.539062 238.53125 300.992188 237.574219 302.488281 C 237.089844 303.253906 236.46875 303.933594 235.628906 305.007812 C 239.433594 304.824219 242.746094 304.667969 246.402344 304.5 C 245.625 303.101562 244.929688 301.859375 244.234375 300.613281 C 244.414062 300.449219 244.597656 300.289062 244.777344 300.128906 C 245.535156 300.386719 246.335938 300.558594 247.039062 300.917969 C 248.578125 301.710938 250.066406 302.601562 251.574219 303.445312 C 253.730469 304.648438 255.628906 306.070312 257.019531 308.21875 C 257.511719 308.980469 258.707031 309.457031 259.675781 309.722656 C 265.117188 311.203125 270.585938 312.152344 276.265625 310.839844 C 283.070312 309.273438 288.167969 305.589844 291.464844 299.417969 C 292.019531 298.375 292.75 297.429688 293.398438 296.4375 C 293.71875 295.796875 294.035156 295.152344 294.351562 294.507812 C 295.078125 291.890625 295.679688 289.222656 296.550781 286.652344 C 299.355469 278.425781 302.101562 270.164062 305.171875 262.027344 C 308.03125 254.453125 308.59375 246.621094 308.460938 238.683594 C 308.390625 234.667969 306.746094 231.03125 304.691406 227.601562 Z M 304.691406 227.601562" fill-rule="evenodd"/><path d="M 287.964844 199.890625 C 289.515625 198.503906 290.707031 196.5625 291.617188 194.660156 C 292.796875 192.207031 293.75 189.59375 294.363281 186.949219 C 294.679688 185.574219 294.101562 183.96875 293.84375 182.484375 C 293.710938 181.71875 293.402344 180.992188 293.054688 179.863281 C 296.046875 180.917969 297.066406 179.199219 297.878906 177.324219 C 300.613281 171.03125 303.363281 164.742188 305.964844 158.386719 C 306.964844 155.933594 306.902344 153.527344 305.199219 151.105469 C 304.101562 149.542969 303.789062 147.425781 302.980469 145.140625 C 304.683594 145.636719 305.785156 146.132812 306.910156 146.214844 C 307.546875 146.257812 308.566406 145.777344 308.835938 145.242188 C 311.75 139.476562 313.914062 133.417969 315.320312 127.101562 C 316.113281 123.515625 315.59375 120.246094 313.070312 117.4375 C 311.785156 116.808594 310.496094 116.175781 309.210938 115.542969 C 307.925781 115.660156 306.625 115.683594 305.359375 115.914062 C 302.179688 116.492188 300.378906 118.796875 298.886719 121.382812 C 295.710938 126.886719 293.777344 132.792969 293.242188 139.140625 C 293.203125 139.617188 293.144531 140.09375 293.152344 140.566406 C 293.203125 143.71875 293.234375 143.5625 296.351562 144.003906 C 297.882812 144.21875 299.339844 145.085938 300.777344 145.773438 C 301.140625 145.941406 301.304688 146.542969 301.554688 146.945312 C 301.460938 147.082031 301.363281 147.214844 301.265625 147.351562 C 299.488281 146.882812 297.710938 146.414062 295.933594 145.945312 C 295.871094 146.101562 295.808594 146.257812 295.742188 146.417969 C 296.785156 146.851562 297.867188 147.207031 298.859375 147.734375 C 300.378906 148.539062 301.875 149.394531 303.285156 150.371094 C 303.703125 150.664062 303.796875 151.445312 304.042969 152 C 303.457031 151.941406 302.773438 152.058594 302.3125 151.792969 C 300.195312 150.578125 298.199219 149.140625 296.046875 148 C 293.003906 146.386719 290.410156 147.238281 288.636719 150.21875 C 286.175781 154.359375 285.34375 158.996094 284.585938 163.648438 C 284.28125 165.527344 284.027344 167.4375 283.992188 169.335938 C 283.972656 170.046875 284.480469 170.988281 285.050781 171.4375 C 285.820312 172.042969 286.859375 172.332031 287.820312 172.65625 C 289.878906 173.339844 290.871094 174.925781 291.40625 177.203125 C 290.816406 176.996094 290.191406 176.855469 289.644531 176.570312 C 287.753906 175.554688 285.921875 174.433594 284.003906 173.476562 C 283.371094 173.15625 282.546875 173.214844 281.574219 173.066406 C 283.851562 174.472656 285.90625 175.515625 287.683594 176.902344 C 289.425781 178.261719 291.535156 179.519531 291.695312 182.808594 C 290.222656 181.898438 289.171875 181.203125 288.082031 180.582031 C 286.441406 179.644531 284.835938 178.597656 283.085938 177.941406 C 282.460938 177.703125 281.03125 178.21875 280.695312 178.8125 C 277.433594 184.496094 275.925781 190.539062 278.144531 196.96875 C 279.550781 201.050781 284.871094 202.664062 287.964844 199.890625 Z M 287.964844 199.890625" fill-rule="evenodd"/><path d="M 186.34375 249.253906 C 183.183594 247.378906 180.019531 245.710938 176.484375 244.804688 C 175.210938 244.476562 174.75 243.816406 174.554688 242.617188 C 174.335938 241.261719 173.925781 239.941406 173.476562 238.101562 C 172.734375 239.050781 172.398438 239.488281 171.980469 240.035156 C 170.433594 239.082031 168.058594 237.589844 167.675781 235.949219 C 167.371094 234.671875 167.234375 233.148438 165.207031 234.152344 C 165 234.253906 166.199219 233.933594 166.03125 233.65625 C 165.507812 232.792969 164.984375 231.902344 164.667969 230.953125 C 162.632812 224.871094 158.296875 221.3125 152.253906 219.757812 C 149.011719 218.925781 145.699219 218.640625 142.332031 219.320312 C 139.433594 219.898438 137.097656 221.214844 135.398438 223.644531 C 135.199219 223.925781 134.871094 224.109375 134.605469 224.339844 C 134.285156 224.980469 133.96875 225.628906 133.652344 226.269531 C 132.179688 233.445312 136.132812 238.011719 141.035156 242.355469 C 146.214844 246.933594 152.824219 248.507812 158.742188 251.527344 C 159.953125 252.148438 161.203125 252.746094 162.292969 253.546875 C 163.945312 254.761719 164.046875 254.75 164.707031 252.722656 C 165.3125 250.875 166.03125 249.058594 166.699219 247.230469 C 166.882812 247.230469 167.066406 247.230469 167.246094 247.230469 C 167.402344 247.773438 167.71875 248.332031 167.691406 248.867188 C 167.511719 251.628906 168.574219 253.628906 170.921875 255.160156 C 173.410156 256.78125 175.8125 258.558594 178.105469 260.449219 C 179.605469 261.691406 180.953125 263.160156 182.15625 264.6875 C 184.144531 267.214844 186.464844 267.101562 188.363281 264.503906 C 190.042969 262.195312 190.617188 259.636719 190.542969 256.953125 C 190.460938 253.761719 189.511719 251.128906 186.34375 249.253906 Z M 186.34375 249.253906" fill-rule="evenodd"/><path d="M 245.40625 171.945312 C 245.738281 173.207031 246.621094 173.703125 248.015625 173.480469 C 248.925781 173.335938 249.890625 173.570312 250.835938 173.636719 C 250.835938 173.933594 250.839844 174.234375 250.84375 174.527344 C 250.019531 174.734375 249.199219 174.972656 248.367188 175.148438 C 245.816406 175.679688 244.996094 176.332031 244.769531 178.625 C 244.242188 183.917969 244.25 189.125 247.464844 193.792969 C 249.90625 197.335938 252.492188 197.664062 255.507812 194.5625 C 259.191406 190.765625 261.207031 186.191406 261 180.882812 C 260.898438 178.261719 259.628906 176.070312 256.917969 175.089844 C 256.640625 174.992188 256.324219 174.882812 256.132812 174.675781 C 255.855469 174.371094 255.671875 173.972656 255.449219 173.613281 C 255.8125 173.542969 256.167969 173.4375 256.53125 173.410156 C 256.816406 173.386719 257.113281 173.453125 257.425781 173.484375 C 257.054688 171.882812 257.46875 171.464844 258.945312 171.914062 C 259.96875 172.222656 260.980469 172.582031 261.984375 172.964844 C 263.132812 173.398438 263.96875 173.035156 264.109375 171.847656 C 264.871094 165.464844 265.902344 159.082031 266.113281 152.679688 C 266.210938 149.828125 266.074219 147.003906 266.554688 144.144531 C 267.445312 138.855469 268.183594 133.539062 268.769531 128.210938 C 269.265625 123.691406 269.273438 119.109375 268.035156 114.703125 C 266.71875 110.015625 260.328125 104.898438 254.613281 107.929688 C 252.363281 109.117188 251.054688 111.03125 250.667969 113.390625 C 249.894531 118.148438 249.40625 122.953125 248.746094 127.726562 C 248.128906 132.140625 247.515625 136.554688 246.742188 140.941406 C 246.453125 142.589844 247.167969 143.152344 248.53125 143.367188 C 250.34375 143.652344 252.351562 143.496094 253.9375 144.238281 C 256.347656 145.375 258.492188 147.089844 260.699219 148.632812 C 260.980469 148.835938 261.152344 149.539062 261.027344 149.890625 C 260.90625 150.234375 260.363281 150.59375 259.96875 150.636719 C 259.34375 150.707031 258.679688 146.914062 258.035156 146.839844 C 254.839844 146.488281 251.652344 146.089844 248.449219 145.824219 C 247.644531 145.757812 246.640625 145.722656 246.410156 147.027344 C 245.476562 152.472656 243.65625 161.410156 244.425781 167.050781 C 244.65625 168.699219 244.976562 170.339844 245.40625 171.945312 Z M 245.40625 171.945312" fill-rule="evenodd"/><path d="M 207.203125 131.792969 C 209.453125 133.871094 209.023438 136.554688 208.894531 139.15625 C 208.703125 142.960938 208.464844 146.761719 208.242188 150.5625 C 208.101562 152.957031 209.34375 153.984375 211.78125 153.566406 C 212.972656 153.359375 214.183594 153.289062 215.386719 153.15625 C 215.453125 153.386719 215.519531 153.613281 215.585938 153.839844 C 213.917969 154.816406 212.25 155.796875 210.582031 156.777344 C 210.691406 156.976562 210.804688 157.171875 210.914062 157.371094 C 212.164062 156.890625 213.410156 156.40625 214.664062 155.929688 C 214.804688 156.148438 214.941406 156.367188 215.085938 156.589844 C 214.148438 157.378906 213.15625 158.113281 212.304688 158.984375 C 211.734375 159.574219 210.992188 160.355469 210.972656 161.066406 C 210.8125 166.214844 211.019531 171.324219 213.253906 176.136719 C 213.949219 177.625 214.695312 178.109375 216.421875 177.550781 C 218.324219 176.9375 220.390625 176.738281 222.402344 176.59375 C 223.289062 176.527344 224.214844 177.042969 225.085938 177.285156 C 224.992188 177.792969 225.003906 177.988281 224.949219 178.007812 C 222.335938 178.953125 220.65625 181.199219 218.425781 182.667969 C 216.585938 183.875 215.617188 185.640625 216.417969 187.667969 C 217.679688 190.871094 218.984375 194.105469 220.722656 197.0625 C 222.835938 200.652344 226.542969 201.535156 229.613281 199.710938 C 231.539062 198.570312 232.308594 196.714844 232.167969 194.714844 C 231.878906 190.503906 231.359375 186.296875 230.753906 182.117188 C 230.566406 180.824219 229.8125 179.617188 229.3125 178.371094 C 229.449219 178.289062 229.589844 178.207031 229.730469 178.128906 C 228.882812 177.714844 228.003906 177.351562 227.207031 176.855469 C 226.855469 176.640625 226.667969 176.15625 226.40625 175.796875 C 226.757812 175.550781 227.128906 175.070312 227.460938 175.09375 C 228.996094 175.210938 229.175781 174.25 229.027344 173.164062 C 228.210938 167.253906 227.339844 161.347656 226.492188 155.441406 C 226.296875 154.097656 225.355469 153.972656 224.253906 153.972656 C 222.507812 153.96875 220.6875 154.332031 218.710938 152.960938 C 219.851562 152.246094 220.742188 151.683594 221.777344 151.035156 C 220.242188 150.65625 218.8125 150.300781 217.167969 149.894531 C 218.722656 148.582031 218.722656 148.582031 225.730469 149.601562 C 225.703125 148.226562 225.675781 146.898438 225.65625 145.570312 C 225.625 143.980469 225.503906 142.382812 225.585938 140.796875 C 225.96875 133.695312 225.054688 126.699219 223.351562 119.863281 C 222.398438 116.039062 219.75 113.148438 215.757812 112.027344 C 212.308594 111.066406 208.46875 113.207031 207.320312 116.640625 C 205.742188 121.355469 206.074219 126.164062 206.878906 130.964844 C 206.929688 131.257812 207.003906 131.613281 207.203125 131.792969 Z M 207.203125 131.792969" fill-rule="evenodd"/><path d="M 347.632812 152.984375 C 344.4375 151.808594 340.738281 153.09375 338.941406 156.148438 C 336.855469 159.699219 334.945312 163.355469 332.808594 166.875 C 331.839844 168.476562 330.6875 170.054688 329.304688 171.308594 C 325.625 174.644531 322.042969 178.039062 319.464844 182.335938 C 318.742188 183.546875 318.296875 184.917969 317.628906 186.171875 C 317.195312 186.988281 316.742188 187.914062 316.035156 188.445312 C 312.183594 191.3125 309.332031 195.035156 307.042969 199.15625 C 305.347656 202.210938 303.503906 205.265625 303.246094 208.921875 C 303.074219 211.335938 304.207031 213.785156 306.03125 214.667969 C 308.335938 215.785156 310.257812 215.617188 312.109375 213.371094 C 315.65625 209.058594 318.9375 204.527344 322.300781 200.0625 C 323.367188 198.644531 322.664062 197.527344 321.570312 196.476562 C 320.933594 195.871094 320.355469 195.183594 319.84375 194.46875 C 319.703125 194.273438 319.804688 193.78125 319.960938 193.535156 C 320.050781 193.394531 320.558594 193.371094 320.757812 193.492188 C 321.515625 193.953125 322.300781 194.414062 322.929688 195.023438 C 324.457031 196.507812 326.132812 196.511719 327.871094 195.617188 C 332.9375 193 336.3125 188.917969 338.171875 183.550781 C 338.648438 182.199219 339.339844 180.878906 339.527344 179.492188 C 339.679688 178.34375 339.222656 177.113281 339.058594 175.921875 C 338.984375 175.359375 338.964844 174.789062 338.925781 174.226562 C 339.390625 174.507812 339.992188 174.683594 340.296875 175.082031 C 341.585938 176.757812 341.96875 176.738281 343.023438 174.785156 C 341.65625 173.9375 340.347656 173.234375 339.183594 172.34375 C 338.734375 172 338.613281 171.222656 338.34375 170.648438 C 339 170.6875 339.699219 170.597656 340.300781 170.800781 C 341.195312 171.097656 342 171.667969 342.890625 172.003906 C 344.855469 172.746094 345.957031 172.429688 346.917969 170.601562 C 348.667969 167.277344 350.367188 163.914062 350.8125 160.09375 C 351.222656 156.59375 350.011719 153.859375 347.632812 152.984375 Z M 347.632812 152.984375" fill-rule="evenodd"/><path d="M 221.074219 237.0625 C 222.5 237.460938 223.863281 238.109375 225.300781 238.402344 C 226.652344 238.679688 228.070312 238.722656 229.449219 238.691406 C 229.792969 238.683594 230.113281 238 230.445312 237.625 C 230.101562 237.324219 229.804688 236.925781 229.40625 236.753906 C 228.996094 236.578125 228.445312 236.730469 228.03125 236.554688 C 226.597656 235.953125 225.1875 235.285156 223.785156 234.621094 C 222.519531 234.019531 221.328125 233.121094 220 232.847656 C 218.15625 232.457031 216.378906 232.15625 215.027344 230.707031 C 214.25 229.878906 213.40625 229.613281 212.675781 230.734375 C 211.980469 231.792969 211.5625 232.976562 212.804688 233.898438 C 213.605469 234.492188 214.605469 234.820312 215.515625 235.269531 C 215.480469 235.390625 215.449219 235.511719 215.410156 235.632812 C 217.300781 236.109375 219.199219 236.539062 221.074219 237.0625 Z M 221.074219 237.0625" fill-rule="evenodd"/></svg>